<svg width="150" height="150" viewBox="0 0 150 150" fill="none" xmlns="http://www.w3.org/2000/svg">
<circle cx="75" cy="75" r="67.5" stroke="black" stroke-width="15"/>
<path d="M72.0077 100H53.9608V49.0909H72.1569C77.2776 49.0909 81.6858 50.1101 85.3813 52.1484C89.0769 54.1702 91.9189 57.0786 93.9076 60.8736C95.9128 64.6686 96.9154 69.2093 96.9154 74.4957C96.9154 79.7988 95.9128 84.3561 93.9076 88.1676C91.9189 91.9792 89.0603 94.9041 85.3316 96.9425C81.6195 98.9808 77.1782 100 72.0077 100ZM64.7243 90.7777H71.5603C74.7421 90.7777 77.4185 90.2143 79.5894 89.0874C81.7769 87.9439 83.4175 86.179 84.5113 83.7926C85.6216 81.3897 86.1768 78.2907 86.1768 74.4957C86.1768 70.7339 85.6216 67.6598 84.5113 65.2734C83.4175 62.8871 81.7852 61.1304 79.6143 60.0035C77.4433 58.8767 74.767 58.3132 71.5851 58.3132H64.7243V90.7777Z" fill="black"/>
</svg>
